<?xml version="1.0" standalone="no"?>
<!DOCTYPE svg PUBLIC "-//W3C//DTD SVG 20010904//EN"
 "http://www.w3.org/TR/2001/REC-SVG-20010904/DTD/svg10.dtd">
<svg version="1.0" xmlns="http://www.w3.org/2000/svg"
 width="260.000000pt" height="260.000000pt" viewBox="0 0 260.000000 260.000000"
 preserveAspectRatio="xMidYMid meet">
<metadata>
Created by potrace 1.11, written by Peter Selinger 2001-2013
</metadata>
<g transform="translate(0.000000,260.000000) scale(0.100000,-0.100000)"
fill="#000000" stroke="none">
<path d="M540 1330 l0 -990 448 0 c565 0 648 10 827 103 139 73 239 199 265
336 43 233 -53 441 -251 540 -43 22 -99 43 -124 47 -52 7 -58 20 -16 29 42 9
139 70 189 118 81 79 122 181 122 303 0 196 -89 345 -253 423 -145 69 -263 81
-792 81 l-415 0 0 -990z m901 589 c34 -16 67 -41 85 -65 26 -33 29 -45 29
-109 0 -95 -31 -145 -113 -183 -55 -26 -64 -27 -259 -30 l-203 -3 0 211 0 212
203 -4 c193 -3 205 -5 258 -29z m4 -774 c93 -20 154 -58 183 -115 54 -107 8
-231 -106 -287 -57 -28 -58 -28 -299 -31 l-243 -4 0 226 0 226 198 0 c135 0
219 -5 267 -15z"/>
</g>
</svg>
